<?xml version="1.0" encoding="UTF-8"?>
<!DOCTYPE svg PUBLIC "-//W3C//DTD SVG 1.1//EN" "http://www.w3.org/Graphics/SVG/1.1/DTD/svg11.dtd">
<svg xmlns="http://www.w3.org/2000/svg" version="1.1" width="2355px" height="2194px" style="shape-rendering:geometricPrecision; text-rendering:geometricPrecision; image-rendering:optimizeQuality; fill-rule:evenodd; clip-rule:evenodd" xmlns:xlink="http://www.w3.org/1999/xlink">
<g><path style="opacity:0.997" fill="#f2f3f3" d="M -0.5,-0.5 C 416.833,-0.5 834.167,-0.5 1251.5,-0.5C 1251.5,158.5 1251.5,317.5 1251.5,476.5C 987.478,472.677 723.478,468.177 459.5,463C 306.299,308.966 152.966,155.132 -0.5,1.5C -0.5,0.833333 -0.5,0.166667 -0.5,-0.5 Z"/></g>
<g><path style="opacity:0.998" fill="#fbb03f" d="M 1418.5,-0.5 C 1420.83,-0.5 1423.17,-0.5 1425.5,-0.5C 1570.5,3.46487 1711.5,29.6315 1848.5,78C 1942.22,111.671 2027.88,159.004 2105.5,220C 2246.54,336.859 2327.37,487.026 2348,670.5C 2351.25,699.912 2353.41,729.245 2354.5,758.5C 2354.5,773.167 2354.5,787.833 2354.5,802.5C 2353.28,895.851 2339.78,987.518 2314,1077.5C 2293.49,1147.53 2261.15,1211.19 2217,1268.5C 2182.12,1309.06 2142.62,1344.23 2098.5,1374C 2000.02,1437.89 1893.36,1483.22 1778.5,1510C 1755.94,1515.18 1733.27,1519.85 1710.5,1524C 1870.47,1746.79 2029.8,1969.95 2188.5,2193.5C 2004.17,2193.5 1819.83,2193.5 1635.5,2193.5C 1389.72,1860.54 1143.72,1527.71 897.5,1195C 1077,1193.36 1256.5,1193.2 1436,1194.5C 1503.87,1194.19 1569.37,1181.69 1632.5,1157C 1737.59,1113.55 1798.09,1035.39 1814,922.5C 1822.3,852.888 1814.3,785.221 1790,719.5C 1764.75,657.818 1725.25,607.318 1671.5,568C 1595.36,515.67 1511.03,485.17 1418.5,476.5C 1418.5,317.5 1418.5,158.5 1418.5,-0.5 Z"/></g>
<g><path style="opacity:0.997" fill="#0f74bc" d="M -0.5,660.5 C 416.833,660.5 834.167,660.5 1251.5,660.5C 1251.5,766.167 1251.5,871.833 1251.5,977.5C 943.833,977.98 636.167,978.48 328.5,979C 635.879,1382.92 943.379,1786.76 1251,2190.5C 1251.48,2191.45 1251.65,2192.45 1251.5,2193.5C 1093.17,2193.5 934.833,2193.5 776.5,2193.5C 517.853,1852.86 258.853,1512.53 -0.5,1172.5C -0.5,1001.83 -0.5,831.167 -0.5,660.5 Z"/></g>
</svg>
